<?xml version="1.0" encoding="utf-8"?>
<!-- Generator: Adobe Illustrator 24.0.0, SVG Export Plug-In . SVG Version: 6.00 Build 0)  -->
<svg version="1.1" id="Layer_1" xmlns="http://www.w3.org/2000/svg" xmlns:xlink="http://www.w3.org/1999/xlink" x="0px" y="0px"
	 viewBox="0 0 100 100" style="enable-background:new 0 0 100 100;" xml:space="preserve">
<style type="text/css">
	.st0{fill:#00218D;}
	.st1{fill:#0076FF;}
</style>
<g>
	<g>
		<g>
			<path class="st0" d="M24.33,27.12l9.41-15.5h-7.45l-8.7,14.9v-14.9h-6.32v43.47h6.34V28.94l19.96,28.54l4.37-5.78L24.33,27.12z"
				/>
		</g>
	</g>
	<g>
		<path class="st0" d="M91.6,17.34c-1.32-1.94-3.02-3.45-5.1-4.52c-2.08-1.08-4.33-1.62-6.75-1.62c-2.34,0-4.57,0.53-6.69,1.59
			c-2.16,1.1-3.87,2.64-5.13,4.63c-1.26,1.99-1.89,4.27-1.89,6.83v16.62h6.14V24.25c0-2.12,0.73-3.79,2.19-5.02
			c1.46-1.22,3.26-1.84,5.38-1.84c2.08,0,3.86,0.61,5.32,1.84s2.19,2.9,2.19,5.02v16.62h6.14l0.11-16.62
			C93.52,21.69,92.88,19.38,91.6,17.34z"/>
	</g>
	<g>
		<g>
			<path class="st1" d="M35.33,78.23c-0.28,1.24-0.71,2.43-1.27,3.55c-0.55,1.09-1.22,2.11-2.01,3.04
				c-2.18,2.57-5.21,4.44-8.76,5.13c-1.16,0.22-2.33,0.31-3.49,0.27c-2.07-0.07-4.11-0.57-5.99-1.46c-0.7-0.33-1.37-0.71-2.02-1.15
				c-1.77-1.19-3.24-2.71-4.35-4.45c0,0,0,0,0-0.01c-1.02-1.6-1.74-3.4-2.12-5.32c-0.03-0.17-0.06-0.33-0.09-0.5
				c-0.62-3.86,0.24-7.74,2.43-11c2.29-3.39,5.76-5.69,9.78-6.47c0.99-0.19,1.97-0.28,2.95-0.28c1.36,0,2.7,0.18,4,0.53
				c0.36,0.1,0.71,0.21,1.07,0.33c1.21,0.43,2.39,1.02,3.48,1.76c0.16,0.11,0.32,0.22,0.47,0.33c0.5,0.36,0.98,0.76,1.43,1.18
				c0.82,0.77,1.55,1.61,2.18,2.53l0.55-0.64c-0.65-0.94-1.42-1.8-2.27-2.58c-0.46-0.43-0.95-0.83-1.47-1.2
				c-0.14-0.1-0.29-0.21-0.43-0.3c-1.12-0.76-2.31-1.36-3.55-1.81c-0.38-0.14-0.77-0.26-1.17-0.37c-2.38-0.66-4.9-0.77-7.39-0.29
				c-4.23,0.82-7.89,3.24-10.31,6.82c-2.41,3.57-3.29,7.87-2.47,12.11c0.82,4.23,3.24,7.89,6.82,10.31c2.7,1.82,5.81,2.77,9,2.77
				c1.03,0,2.07-0.1,3.11-0.3c3.74-0.72,6.93-2.69,9.22-5.4c0.83-0.98,1.55-2.06,2.13-3.21c0.62-1.23,1.09-2.55,1.38-3.91
				L35.33,78.23L35.33,78.23z"/>
		</g>
		<g>
			<path class="st1" d="M31.32,74.62c-1.38-7.13-8.31-11.8-15.43-10.42C9.54,65.44,5.14,71.06,5.23,77.32
				c0.01,0.77,0.09,1.54,0.24,2.32c1.22,6.28,6.74,10.66,12.92,10.66c0.47,0,0.94-0.02,1.41-0.08c0.36-0.04,0.73-0.09,1.1-0.16
				c6.28-1.22,10.66-6.75,10.66-12.92C31.56,76.3,31.48,75.46,31.32,74.62z M20.78,89.4c-2.42,0.47-4.82,0.21-6.96-0.64
				c-2.68-1.06-4.96-3.04-6.37-5.61c0,0,0,0,0-0.01c-0.61-1.11-1.06-2.32-1.31-3.63c-1.31-6.76,3.13-13.34,9.89-14.65
				c0.8-0.15,1.6-0.23,2.38-0.23c1.31,0,2.59,0.21,3.8,0.6c1.32,0.42,2.55,1.06,3.65,1.88c0.15,0.11,0.3,0.22,0.44,0.34
				c0.78,0.64,1.49,1.37,2.1,2.18c0.8,1.07,1.45,2.28,1.87,3.61c0.16,0.49,0.29,0.99,0.39,1.51C31.98,81.52,27.54,88.09,20.78,89.4z
				"/>
		</g>
		<g>
			<path class="st1" d="M30.27,73.24c-0.02-0.21-0.06-0.42-0.1-0.63c-0.47-2.41-1.85-4.5-3.88-5.87c-1.24-0.84-2.64-1.35-4.09-1.52
				c-0.92-0.11-1.87-0.07-2.8,0.11c-2.41,0.47-4.5,1.85-5.87,3.88c-1.21,1.78-1.74,3.89-1.54,6.01l0,0
				c0.03,0.29,0.07,0.59,0.13,0.89c0.2,1.01,0.55,1.96,1.05,2.83c0.69,1.2,1.65,2.24,2.83,3.04c1.54,1.04,3.31,1.58,5.13,1.58
				c0.59,0,1.18-0.06,1.77-0.17c4.39-0.85,7.44-4.71,7.44-9.03C30.34,74,30.32,73.62,30.27,73.24z M22.8,82.86
				c-2.27,0.44-4.57-0.03-6.49-1.32c-1.1-0.75-2-1.71-2.64-2.83l0,0c-0.48-0.83-0.82-1.73-1.01-2.7c-0.06-0.29-0.1-0.58-0.13-0.87
				l0,0c-0.18-1.98,0.32-3.94,1.45-5.61c1.29-1.92,3.25-3.21,5.52-3.65c0.55-0.11,1.11-0.16,1.66-0.16c1.65,0,3.27,0.48,4.69,1.4
				c0.05,0.03,0.09,0.06,0.14,0.08c0.97,0.66,1.78,1.49,2.41,2.44c0.6,0.92,1.03,1.97,1.24,3.08C30.55,77.4,27.48,81.95,22.8,82.86z
				"/>
		</g>
		<g>
			<circle class="st0" cx="27.19" cy="60.72" r="2.87"/>
		</g>
		<g>
			<circle class="st0" cx="12.59" cy="77.09" r="1.95"/>
		</g>
		<g>
			<circle class="st0" cx="33.59" cy="83.65" r="1.93"/>
		</g>
	</g>
	<g>
		<path class="st1" d="M57.44,70.11v-24.5h-5.52L33.06,70.59v5.79h17.31v9.01h7.08v-9.01h6.06v-6.27
			C63.51,70.11,57.44,70.11,57.44,70.11z M50.37,70.11H41.3l9.07-12.04V70.11z"/>
		<path class="st1" d="M76.45,75.23c1.39-1.07,3.27-2.26,5.66-3.57c3.11-1.75,5.22-3.02,6.33-3.81c3.4-2.39,5.09-5.75,5.09-10.08
			c0-2.36-0.57-4.54-1.72-6.54c-1.15-1.93-2.75-3.42-4.82-4.48c-2.07-1.05-4.43-1.58-7.08-1.58c-2.11,0-4.07,0.33-5.9,0.99
			c-1.82,0.66-3.34,1.6-4.56,2.82c-2.39,2.39-3.68,5.66-3.86,9.81h5.47c0.01,0,0.01,0,0.02,0h1.81c0.06-0.72,0.24-1.75,0.32-2.19
			c0.67-3.33,2.77-4.99,6.33-4.99c2.04,0,3.65,0.56,4.85,1.69c1.2,1.13,1.8,2.64,1.8,4.53c0,1.18-0.25,2.18-0.75,3
			c-0.43,0.79-1.05,1.48-1.88,2.09c-0.82,0.61-2.32,1.56-4.5,2.84c-2.79,1.57-5.34,3.2-7.66,4.88c-2.14,1.68-3.82,3.76-5.04,6.24
			c-1.21,2.48-1.79,5.31-1.72,8.5H93.5v-6.97H74.33C74.74,76.84,75.81,75.76,76.45,75.23z"/>
	</g>
	<path class="st0" d="M59.71,18.01c-0.45-0.69-0.93-1.32-1.43-1.9c0-0.01-0.01-0.02-0.02-0.02c-1.22-1.39-2.61-2.46-4.18-3.21h-0.01
		c-1.81-0.86-3.57-1.39-5.29-1.59c-0.09-0.01-0.18-0.02-0.27-0.03c-0.06,0-0.12-0.01-0.17-0.01c-0.13-0.01-0.26-0.02-0.38-0.02
		c-0.12-0.01-0.25-0.01-0.37-0.01c-0.14,0-0.27,0-0.4,0c-0.17,0-0.34,0-0.51,0.01c-0.01,0-0.03,0-0.04,0
		c-0.18,0-0.35,0.01-0.52,0.03c-0.18,0.01-0.36,0.03-0.54,0.05s-0.36,0.04-0.54,0.07c-0.13,0.02-0.27,0.04-0.4,0.06
		c-1.99,0.35-3.86,1.09-5.64,2.25c-1.28,0.84-2.38,1.8-3.32,2.91c-0.14,0.16-0.27,0.33-0.4,0.5c-0.01,0.01-0.03,0.03-0.04,0.05
		c-0.1,0.13-0.2,0.26-0.29,0.39c-0.02,0.03-0.04,0.06-0.06,0.09c-0.09,0.13-0.18,0.27-0.27,0.4c-0.1,0.15-0.2,0.31-0.3,0.47
		c-0.08,0.14-0.17,0.29-0.25,0.43c-0.01,0.02-0.03,0.05-0.04,0.07c-0.27,0.49-0.51,1-0.72,1.52c-0.44,1.1-0.75,2.2-0.93,3.3
		c-0.01,0.07-0.02,0.13-0.03,0.2c-0.01,0.07-0.02,0.14-0.03,0.21c-0.02,0.16-0.04,0.33-0.06,0.49c-0.01,0.11-0.02,0.22-0.03,0.32
		c0,0.01,0,0.01,0,0.02c-0.01,0.13-0.02,0.25-0.02,0.38c-0.01,0.13-0.01,0.25-0.01,0.37c0,0.13,0,0.27,0,0.4c0,0.17,0,0.33,0.01,0.5
		c0,0.15,0.01,0.29,0.02,0.44c0,0.04,0,0.08,0.01,0.12c0.01,0.15,0.02,0.3,0.04,0.44c0.24,2.32,1.04,4.53,2.38,6.63
		c0.56,0.87,1.16,1.66,1.81,2.35c1.13,1.21,2.4,2.16,3.8,2.84c0.14,0.07,0.28,0.13,0.41,0.19l0,0c1.37,0.62,2.73,1.05,4.07,1.28
		c0.07,0.01,0.14,0.02,0.21,0.03c0.1,0.02,0.2,0.03,0.3,0.04c0.13,0.02,0.25,0.03,0.38,0.04c0.04,0,0.09,0.01,0.14,0.01
		c0.01,0,0.03,0,0.04,0c0.32,0.03,0.64,0.05,0.95,0.06c0.3,0.01,0.59,0,0.88-0.01c0.16,0,0.32-0.01,0.48-0.02
		c0.14-0.01,0.27-0.02,0.41-0.03c0.02,0,0.04,0,0.06,0s0.05,0,0.07-0.01c0.14-0.01,0.27-0.03,0.41-0.05
		c0.12-0.01,0.25-0.03,0.37-0.05c0.13-0.02,0.26-0.04,0.39-0.07c0.13-0.02,0.26-0.05,0.39-0.07c0.12-0.03,0.24-0.05,0.36-0.08
		c0.08-0.02,0.16-0.04,0.24-0.06c0.13-0.03,0.25-0.06,0.37-0.1c0.95-0.27,1.89-0.64,2.8-1.1c0.5-0.26,0.99-0.54,1.45-0.84
		c0.28-0.18,0.55-0.37,0.81-0.57c0.06-0.04,0.11-0.08,0.17-0.13c0.09-0.07,0.19-0.14,0.28-0.22c1.02-0.83,1.92-1.79,2.69-2.89
		c0.05-0.07,0.1-0.13,0.14-0.2l0,0l-5.98-2.46c-0.83,0.9-1.84,1.59-3.01,2.06s-2.39,0.69-3.64,0.66c-1.11-0.03-2.14-0.24-3.09-0.63
		c-1.17-0.47-2.19-1.17-3.05-2.09c-0.86-0.93-1.5-2-1.92-3.23l23.01,0.02l0.01-0.09c0.13-0.77,0.2-1.56,0.22-2.38
		C62.19,23.51,61.39,20.67,59.71,18.01z M38.95,23.23l0.12-0.33c0.7-1.72,1.82-3.06,3.36-4.02c1.54-0.96,3.21-1.42,5.01-1.38
		c1.11,0.03,2.14,0.23,3.08,0.63c1.17,0.47,2.18,1.15,3.03,2.04c0.85,0.88,1.46,1.91,1.84,3.06v0.01L38.95,23.23L38.95,23.23z"/>
</g>
</svg>
